# xmcd
#
# Track frame offsets: 
#        150
#        25612
#        49437
#        86437
#        103337
#        147112
#        163162
#
# Disc length: 2587 seconds
#
# Revision: 2
# Processed by: cddbd v1.5.2PL0 Copyright (c) Steve Scherf et al.
# Submitted via: ExactAudioCopyFreeDBPlugin 1.0
#
DISCID=590a1907
DTITLE=Albert Collins - Live In Japan
DYEAR=1984
DGENRE=Blues
TTITLE0=Albert Collins and The Icebreakers - Listen Here!
TTITLE1=Albert Collins and The Icebreakers - Tired Man
TTITLE2=Albert Collins and The Icebreakers - If Trouble Was Money
TTITLE3=Albert Collins and The Icebreakers - Jealous Man
TTITLE4=Albert Collins and The Icebreakers - Stormy Monday
TTITLE5=Albert Collins and The Icebreakers - Skatin'
TTITLE6=Albert Collins and The Icebreakers - All About My Girl
EXTD=
EXTT0=
EXTT1=
EXTT2=
EXTT3=
EXTT4=
EXTT5=
EXTT6=
PLAYORDER=
